<svg width="122" height="40" viewBox="0 0 122 40" fill="none" xmlns="http://www.w3.org/2000/svg">
<path d="M104.441 40C92.532 40 86.8712 34.4993 86.8177 27.3965H90.5561C90.9833 34.0721 96.2704 37.0628 104.548 37.0628C113.52 37.0628 117.899 34.1789 117.899 28.8384C117.899 22.2697 112.559 21.6288 104.228 20.8278C93.2263 19.7063 88.2597 17.3565 88.2597 10.7343C88.2597 3.68491 94.9886 0 104.281 0C114.428 0 120.516 4.53938 120.89 11.2684H117.045C116.778 6.08812 111.544 2.93725 104.388 2.93725C96.1635 2.93725 92.2116 5.71429 92.2116 10.4673C92.2116 15.4873 96.484 16.5554 105.509 17.5701C113.253 18.3712 121.905 18.9052 121.905 28.6248C121.905 35.6742 115.816 40 104.441 40Z" fill="#042C51"/>
<path d="M49.6254 39.4661V0.53418H71.2542C78.8911 0.53418 83.4304 3.52483 83.4304 10.2004C83.4304 14.6864 80.867 18.2645 75.9538 19.2792V19.5996C81.3477 20.2939 84.6053 23.7652 84.6053 28.9454C84.6053 35.621 79.9591 39.4661 71.094 39.4661H49.6254ZM71.361 3.41803H53.2035V18.2111H71.2008C77.0219 18.2111 79.4785 15.4875 79.4785 11.7491V9.66636C79.4785 5.394 76.4344 3.41803 71.361 3.41803ZM71.361 20.9881H53.2035V36.5823H71.094C77.4491 36.5823 80.5466 33.912 80.5466 29.4794V27.6103C80.5466 23.3913 77.1287 20.9881 71.361 20.9881Z" fill="#042C51"/>
<path fill-rule="evenodd" clip-rule="evenodd" d="M39.1492 0.53418V6.6223H42.6205V0.53418H39.1492Z" fill="#042C51"/>
<path d="M39.1492 39.4661V11.7491H42.6205V39.4661H39.1492Z" fill="#042C51"/>
<path d="M17.6235 40C5.71428 40 0.0534047 34.4993 0 27.3965H3.73832C4.16555 34.0721 9.4526 37.0628 17.7303 37.0628C26.7023 37.0628 31.0814 34.1789 31.0814 28.8384C31.0814 22.2697 25.741 21.6288 17.4099 20.8278C6.40854 19.7063 1.44192 17.3565 1.44192 10.7343C1.44192 3.68491 8.1709 0 17.4633 0C27.6101 0 33.6983 4.53938 34.0721 11.2684H30.227C29.96 6.08812 24.7263 2.93725 17.5701 2.93725C9.34579 2.93725 5.39386 5.71429 5.39386 10.4673C5.39386 15.4873 9.66622 16.5554 18.6916 17.5701C26.4352 18.3712 35.0868 18.9052 35.0868 28.6248C35.0868 35.6742 28.9987 40 17.6235 40Z" fill="#042C51"/>
</svg>
